<?xml version="1.0" encoding="iso-8859-1"?>
<!-- Uploaded to: SVG Repo, www.svgrepo.com, Generator: SVG Repo Mixer Tools -->
<svg fill="#000000" height="800px" width="800px" version="1.1" id="Layer_1" xmlns="http://www.w3.org/2000/svg" xmlns:xlink="http://www.w3.org/1999/xlink" 
	 viewBox="0 0 512 512" xml:space="preserve">
<g>
	<g>
		<ellipse cx="68.256" cy="125.048" rx="13.184" ry="13.168"/>
	</g>
</g>
<g>
	<g>
		<ellipse cx="103.208" cy="125.048" rx="13.184" ry="13.168"/>
	</g>
</g>
<g>
	<g>
		<ellipse cx="138.16" cy="125.048" rx="13.184" ry="13.168"/>
	</g>
</g>
<g>
	<g>
		<polygon points="202.024,104.336 174.216,146.912 456.928,146.912 456.928,104.336 		"/>
	</g>
</g>
<g>
	<g>
		<path d="M488,49.336H24c-13.2,0-24,10.8-24,24v365.336c0,13.192,10.8,23.992,24,23.992h464c13.2,0,24-10.8,24-24V73.336
			C512,60.136,501.2,49.336,488,49.336z M480,421.92l-22.144-16.816h-63.632l33.544,25.568h-27.704L366.4,405.096H145.592
			l-33.664,25.568H84.224l33.544-25.568H54.144L32,421.912V81.336h448V421.92z"/>
	</g>
</g>
<g>
	<g>
		<path d="M322.04,315.216c7.88-13.168,12.496-28.504,12.496-44.936c0-48.456-39.416-87.864-87.864-87.864
			c-48.448,0-87.864,39.416-87.864,87.864s39.4,87.864,87.856,87.864c20.456,0,39.256-7.088,54.208-18.848L330.584,369
			l22.624-22.624L322.04,315.216z M246.664,326.136c-30.8,0-55.864-25.064-55.864-55.864c0-30.8,25.056-55.864,55.864-55.864
			c30.808,0,55.864,25.064,55.864,55.864C302.528,301.072,277.464,326.136,246.664,326.136z"/>
	</g>
</g>
</svg>